# xmcd
#
# Track frame offsets: 
#        150
#        24214
#        43308
#        59955
#        71671
#        82800
#        104460
#        122533
#        146818
#        159651
#        182780
#        202228
#        223070
#        235565
#        249723
#        270968
#        285218
#        299731
#        316781
#        331146
#
# Disc length: 4683 seconds
#
# Revision: 0
# Processed by: cddbd v1.5.2PL0 Copyright (c) Steve Scherf et al.
# Submitted via: ExactAudioCopyFreeDBPlugin 1.0
#
DISCID=31124914
DTITLE=Mahalia Jackson - Mahalia Jackson: Silent Night
DYEAR=1900
DGENRE=Gospel
TTITLE0=Sweet little Jesus Boy
TTITLE1=A Star stood still
TTITLE2=Hark the Herald Angels sing
TTITLE3=Christmas comes to us all once a Year
TTITLE4=Joy to the World!
TTITLE5=O come, all ye Faithful
TTITLE6=O little Town of Bethlehem
TTITLE7=What can I give
TTITLE8=Go tell it on the Mountain
TTITLE9=Silent Night, Holy Night
TTITLE10=No Room at the Inn
TTITLE11=I wonder as I wander
TTITLE12=The holy Babe
TTITLE13=Mary´s little Boy Child
TTITLE14=Sweet little Jesus Boy
TTITLE15=Joy to the World!
TTITLE16=Joy to the World!
TTITLE17=O little Town of Bethlehem
TTITLE18=Go tell it on the Mountain
TTITLE19=Silent Night, Holy Night
EXTD=
EXTT0=
EXTT1=
EXTT2=
EXTT3=
EXTT4=
EXTT5=
EXTT6=
EXTT7=
EXTT8=
EXTT9=
EXTT10=
EXTT11=
EXTT12=
EXTT13=
EXTT14=
EXTT15=
EXTT16=
EXTT17=
EXTT18=
EXTT19=
PLAYORDER=
